# xmcd
#
# Track frame offsets: 
#        150
#        10920
#        17276
#        27170
#        29941
#        35808
#        42199
#        48305
#        55909
#        68456
#        77443
#        93480
#        112453
#        114078
#        119956
#        134924
#        139398
#        155864
#        162488
#        178741
#        187361
#        192148
#        206187
#        212334
#        220581
#        232938
#        238317
#        246219
#
# Disc length: 3617 seconds
#
# Revision: 0
# Processed by: cddbd v1.5.2PL0 Copyright (c) Steve Scherf et al.
# Submitted via: ExactAudioCopy v0.99pb4
#
DISCID=a80e1f1c
DTITLE=Les Folies francoises - Musica Florea - Cd 5 - Concerts And Sy
DTITLE=mphonies For The King
DYEAR=2007
DGENRE=Classical
TTITLE0=Francois Couperin - Premier Concert royal - Prelude
TTITLE1=Allemande
TTITLE2=Sarabande
TTITLE3=Gavotte
TTITLE4=Gigue
TTITLE5=Menuet
TTITLE6=Deuxieme Concert royal - Pelude
TTITLE7=Allemande fuguee
TTITLE8=Air tendre
TTITLE9=Air contre-fugue
TTITLE10=Echos
TTITLE11=M-R. De Lalande - Symphonies pour les Soupers du Roi - Ouvert
TTITLE11=ure
TTITLE12=Prelude
TTITLE13=Marche des Candiots
TTITLE14=Air des Candiots
TTITLE15=Air des Combattants
TTITLE16=Chaconne
TTITLE17=Air d'Ancelade
TTITLE18=J-B. De Lully Fils  - Concert donne au aouper du Roi - Ouvertu
TTITLE18=re
TTITLE19=Sarabande
TTITLE20=Bourree
TTITLE21=Quatrieme Air en suite
TTITLE22=Loure
TTITLE23=Premier et deuxieme Rigaudon
TTITLE24=Grand Air en suite
TTITLE25=Rondeau en suite
TTITLE26=Grand Air en fanfare
TTITLE27=Passacaille
EXTD=
EXTT0=
EXTT1=
EXTT2=
EXTT3=
EXTT4=
EXTT5=
EXTT6=
EXTT7=
EXTT8=
EXTT9=
EXTT10=
EXTT11=
EXTT12=
EXTT13=
EXTT14=
EXTT15=
EXTT16=
EXTT17=
EXTT18=
EXTT19=
EXTT20=
EXTT21=
EXTT22=
EXTT23=
EXTT24=
EXTT25=
EXTT26=
EXTT27=
PLAYORDER=
